<svg xmlns="http://www.w3.org/2000/svg" viewBox="0 0 400 400" width="100%" height="100%">
  <defs>
    <linearGradient id="bgGrad_atorva_20mg_tablet" x1="0%" y1="0%" x2="100%" y2="100%">
      <stop offset="0%" stop-color="#faf5ff"/>
      <stop offset="100%" stop-color="#f3e8ff"/>
    </linearGradient>
    <filter id="dropShadow" x="-10%" y="-10%" width="130%" height="130%">
      <feDropShadow dx="0" dy="8" stdDeviation="10" flood-color="#0f172a" flood-opacity="0.12"/>
    </filter>
  </defs>

  <!-- Studio Background -->
  <rect width="400" height="400" rx="24" fill="url(#bgGrad_atorva_20mg_tablet)"/>
  <rect x="8" y="8" width="384" height="384" rx="18" fill="none" stroke="#ffffff" stroke-width="2" opacity="0.6"/>

  <!-- Category Tag Header -->
  <rect x="24" y="24" width="auto" height="24" rx="12" fill="#ffffff" opacity="0.9"/>
  <text x="32" y="40" fill="#7e22ce" font-size="10" font-weight="800" font-family="-apple-system, BlinkMacSystemFont, 'Segoe UI', Roboto, sans-serif" letter-spacing="0.5">CARDIAC • STATIN</text>

  <!-- Main Product Vector Art -->
  <g>
    
      <!-- Purple Statin Blister Pack -->
      <rect x="90" y="110" width="220" height="180" rx="14" fill="#ffffff" stroke="#d8b4fe" stroke-width="2" filter="url(#dropShadow)"/>
      <rect x="90" y="110" width="220" height="44" rx="14" fill="#7e22ce"/>
      <rect x="90" y="140" width="220" height="14" fill="#7e22ce"/>
      <text x="105" y="136" fill="#ffffff" font-size="14" font-weight="bold" font-family="sans-serif">ATORVA 20</text>
      <text x="245" y="136" fill="#e9d5ff" font-size="10" font-weight="bold" font-family="sans-serif">Zydus</text>
      
      <!-- Oval Tablets -->
      <g fill="#f3e8ff" stroke="#7e22ce" stroke-width="1.5">
        <rect x="110" y="170" width="40" height="22" rx="11"/>
        <rect x="180" y="170" width="40" height="22" rx="11"/>
        <rect x="250" y="170" width="40" height="22" rx="11"/>
        <rect x="110" y="225" width="40" height="22" rx="11"/>
        <rect x="180" y="225" width="40" height="22" rx="11"/>
        <rect x="250" y="225" width="40" height="22" rx="11"/>
      </g>
      <line x1="130" y1="172" x2="130" y2="190" stroke="#7e22ce" stroke-width="1.2"/>
      <line x1="200" y1="172" x2="200" y2="190" stroke="#7e22ce" stroke-width="1.2"/>
      <line x1="270" y1="172" x2="270" y2="190" stroke="#7e22ce" stroke-width="1.2"/>
    
  </g>

  <!-- Medicine Label Footer -->
  <rect x="24" y="325" width="352" height="52" rx="14" fill="#ffffff" opacity="0.95" filter="url(#dropShadow)"/>
  <text x="38" y="348" fill="#0f172a" font-size="14" font-weight="800" font-family="-apple-system, BlinkMacSystemFont, 'Segoe UI', Roboto, sans-serif">Atorva 20mg</text>
  <text x="38" y="365" fill="#64748b" font-size="11" font-weight="600" font-family="-apple-system, BlinkMacSystemFont, 'Segoe UI', Roboto, sans-serif">Atorvastatin (20mg) • Zydus Healthcare</text>
</svg>