<svg xmlns="http://www.w3.org/2000/svg" viewBox="0 0 400 400" width="100%" height="100%">
  <defs>
    <linearGradient id="bgGrad_combiflam_tablet" x1="0%" y1="0%" x2="100%" y2="100%">
      <stop offset="0%" stop-color="#fff7ed"/>
      <stop offset="100%" stop-color="#ffedd5"/>
    </linearGradient>
    <filter id="dropShadow" x="-10%" y="-10%" width="130%" height="130%">
      <feDropShadow dx="0" dy="8" stdDeviation="10" flood-color="#0f172a" flood-opacity="0.12"/>
    </filter>
  </defs>

  <!-- Studio Background -->
  <rect width="400" height="400" rx="24" fill="url(#bgGrad_combiflam_tablet)"/>
  <rect x="8" y="8" width="384" height="384" rx="18" fill="none" stroke="#ffffff" stroke-width="2" opacity="0.6"/>

  <!-- Category Tag Header -->
  <rect x="24" y="24" width="auto" height="24" rx="12" fill="#ffffff" opacity="0.9"/>
  <text x="32" y="40" fill="#ea580c" font-size="10" font-weight="800" font-family="-apple-system, BlinkMacSystemFont, 'Segoe UI', Roboto, sans-serif" letter-spacing="0.5">PAIN RELIEF • TABLET</text>

  <!-- Main Product Vector Art -->
  <g>
    
      <!-- Orange/Red Combiflam Strip -->
      <rect x="80" y="100" width="240" height="200" rx="14" fill="#ffffff" stroke="#f97316" stroke-width="2" filter="url(#dropShadow)"/>
      <rect x="80" y="100" width="240" height="44" rx="14" fill="#ea580c"/>
      <rect x="80" y="130" width="240" height="14" fill="#ea580c"/>
      <text x="95" y="130" fill="#ffffff" font-size="15" font-weight="900" font-family="sans-serif">COMBIFLAM</text>
      <text x="245" y="130" fill="#ffedd5" font-size="10" font-weight="bold" font-family="sans-serif">Sanofi</text>
      
      <!-- 20 Tablet Dual Formula Grid -->
      <g fill="#ffedd5" stroke="#ea580c" stroke-width="1.5">
        <circle cx="115" cy="170" r="14"/>
        <circle cx="160" cy="170" r="14"/>
        <circle cx="205" cy="170" r="14"/>
        <circle cx="250" cy="170" r="14"/>
        <circle cx="115" cy="215" r="14"/>
        <circle cx="160" cy="215" r="14"/>
        <circle cx="205" cy="215" r="14"/>
        <circle cx="250" cy="215" r="14"/>
        <circle cx="115" cy="260" r="14"/>
        <circle cx="160" cy="260" r="14"/>
        <circle cx="205" cy="260" r="14"/>
        <circle cx="250" cy="260" r="14"/>
      </g>
    
  </g>

  <!-- Medicine Label Footer -->
  <rect x="24" y="325" width="352" height="52" rx="14" fill="#ffffff" opacity="0.95" filter="url(#dropShadow)"/>
  <text x="38" y="348" fill="#0f172a" font-size="14" font-weight="800" font-family="-apple-system, BlinkMacSystemFont, 'Segoe UI', Roboto, sans-serif">Combiflam</text>
  <text x="38" y="365" fill="#64748b" font-size="11" font-weight="600" font-family="-apple-system, BlinkMacSystemFont, 'Segoe UI', Roboto, sans-serif">Ibuprofen + Paracetamol • Sanofi India</text>
</svg>