<svg xmlns="http://www.w3.org/2000/svg" viewBox="0 0 400 400" width="100%" height="100%">
  <defs>
    <linearGradient id="bgGrad_telma_40mg_tablet" x1="0%" y1="0%" x2="100%" y2="100%">
      <stop offset="0%" stop-color="#f0f9ff"/>
      <stop offset="100%" stop-color="#e0f2fe"/>
    </linearGradient>
    <filter id="dropShadow" x="-10%" y="-10%" width="130%" height="130%">
      <feDropShadow dx="0" dy="8" stdDeviation="10" flood-color="#0f172a" flood-opacity="0.12"/>
    </filter>
  </defs>

  <!-- Studio Background -->
  <rect width="400" height="400" rx="24" fill="url(#bgGrad_telma_40mg_tablet)"/>
  <rect x="8" y="8" width="384" height="384" rx="18" fill="none" stroke="#ffffff" stroke-width="2" opacity="0.6"/>

  <!-- Category Tag Header -->
  <rect x="24" y="24" width="auto" height="24" rx="12" fill="#ffffff" opacity="0.9"/>
  <text x="32" y="40" fill="#0369a1" font-size="10" font-weight="800" font-family="-apple-system, BlinkMacSystemFont, 'Segoe UI', Roboto, sans-serif" letter-spacing="0.5">CARDIAC • TABLET</text>

  <!-- Main Product Vector Art -->
  <g>
    
      <!-- Blister Pack 10 Tabs -->
      <rect x="90" y="110" width="220" height="180" rx="14" fill="#f8fafc" stroke="#cbd5e1" stroke-width="2" filter="url(#dropShadow)"/>
      <rect x="90" y="110" width="220" height="42" rx="14" fill="#0284c7"/>
      <rect x="90" y="138" width="220" height="14" fill="#0284c7"/>
      <text x="105" y="136" fill="#ffffff" font-size="14" font-weight="bold" font-family="sans-serif">TELMA 40</text>
      <text x="235" y="136" fill="#fed7aa" font-size="10" font-weight="600" font-family="sans-serif">Glenmark</text>
      
      <!-- Blister Cavities -->
      <g fill="#e2e8f0" stroke="#94a3b8" stroke-width="1.5">
        <ellipse cx="130" cy="180" rx="20" ry="14"/>
        <ellipse cx="200" cy="180" rx="20" ry="14"/>
        <ellipse cx="270" cy="180" rx="20" ry="14"/>
        <ellipse cx="130" cy="235" rx="20" ry="14"/>
        <ellipse cx="200" cy="235" rx="20" ry="14"/>
        <ellipse cx="270" cy="235" rx="20" ry="14"/>
      </g>
      <!-- Tablet inside cavity -->
      <ellipse cx="130" cy="180" rx="15" ry="10" fill="#f97316"/>
      <ellipse cx="200" cy="180" rx="15" ry="10" fill="#f97316"/>
      <ellipse cx="270" cy="180" rx="15" ry="10" fill="#f97316"/>
      <ellipse cx="130" cy="235" rx="15" ry="10" fill="#f97316"/>
      <ellipse cx="200" cy="235" rx="15" ry="10" fill="#f97316"/>
      <ellipse cx="270" cy="235" rx="15" ry="10" fill="#f97316"/>
    
  </g>

  <!-- Medicine Label Footer -->
  <rect x="24" y="325" width="352" height="52" rx="14" fill="#ffffff" opacity="0.95" filter="url(#dropShadow)"/>
  <text x="38" y="348" fill="#0f172a" font-size="14" font-weight="800" font-family="-apple-system, BlinkMacSystemFont, 'Segoe UI', Roboto, sans-serif">Telma 40mg</text>
  <text x="38" y="365" fill="#64748b" font-size="11" font-weight="600" font-family="-apple-system, BlinkMacSystemFont, 'Segoe UI', Roboto, sans-serif">Telmisartan (40mg) • Glenmark</text>
</svg>